<mxfile host="app.diagrams.net" modified="2023-07-28T13:38:02.061Z" agent="Mozilla/5.0 (Windows NT 10.0; Win64; x64) AppleWebKit/537.36 (KHTML, like Gecko) Chrome/115.0.0.0 Safari/537.36" etag="oL0T2HUzJunp2afJNmrM" version="21.6.5" type="github">
  <diagram name="Page-1" id="7e0a89b8-554c-2b80-1dc8-d5c74ca68de4">
    <mxGraphModel dx="1430" dy="793" grid="1" gridSize="10" guides="1" tooltips="1" connect="1" arrows="1" fold="1" page="1" pageScale="1" pageWidth="1100" pageHeight="850" background="none" math="0" shadow="0">
      <root>
        <mxCell id="0" />
        <mxCell id="1" parent="0" />
        <mxCell id="H4aXOUXndxHRp2GkOmo0-1" value="Übergabe StromnetzHH" style="whiteSpace=wrap;html=1;aspect=fixed;" vertex="1" parent="1">
          <mxGeometry x="40" y="80" width="80" height="80" as="geometry" />
        </mxCell>
        <mxCell id="H4aXOUXndxHRp2GkOmo0-2" value="Wandlerzählung" style="rounded=0;whiteSpace=wrap;html=1;" vertex="1" parent="1">
          <mxGeometry x="210" y="80" width="120" height="80" as="geometry" />
        </mxCell>
        <mxCell id="H4aXOUXndxHRp2GkOmo0-3" value="" style="endArrow=none;html=1;rounded=0;exitX=1;exitY=0.5;exitDx=0;exitDy=0;entryX=0;entryY=0.5;entryDx=0;entryDy=0;" edge="1" parent="1" source="H4aXOUXndxHRp2GkOmo0-1" target="H4aXOUXndxHRp2GkOmo0-2">
          <mxGeometry width="50" height="50" relative="1" as="geometry">
            <mxPoint x="350" y="240" as="sourcePoint" />
            <mxPoint x="400" y="190" as="targetPoint" />
          </mxGeometry>
        </mxCell>
        <mxCell id="H4aXOUXndxHRp2GkOmo0-4" value="Leistungsschalter" style="rounded=0;whiteSpace=wrap;html=1;" vertex="1" parent="1">
          <mxGeometry x="520" y="80" width="120" height="60" as="geometry" />
        </mxCell>
        <mxCell id="H4aXOUXndxHRp2GkOmo0-5" value="NH" style="rounded=0;whiteSpace=wrap;html=1;" vertex="1" parent="1">
          <mxGeometry x="760" y="80" width="30" height="20" as="geometry" />
        </mxCell>
        <mxCell id="H4aXOUXndxHRp2GkOmo0-9" value="Marktsäule" style="rounded=0;whiteSpace=wrap;html=1;" vertex="1" parent="1">
          <mxGeometry x="880" y="80" width="100" height="20" as="geometry" />
        </mxCell>
        <mxCell id="H4aXOUXndxHRp2GkOmo0-10" value="" style="endArrow=none;html=1;rounded=0;exitX=0.987;exitY=0.327;exitDx=0;exitDy=0;exitPerimeter=0;entryX=0;entryY=0.5;entryDx=0;entryDy=0;" edge="1" parent="1" source="H4aXOUXndxHRp2GkOmo0-4" target="H4aXOUXndxHRp2GkOmo0-5">
          <mxGeometry width="50" height="50" relative="1" as="geometry">
            <mxPoint x="740" y="190" as="sourcePoint" />
            <mxPoint x="790" y="140" as="targetPoint" />
            <Array as="points">
              <mxPoint x="720" y="100" />
              <mxPoint x="720" y="90" />
            </Array>
          </mxGeometry>
        </mxCell>
        <mxCell id="H4aXOUXndxHRp2GkOmo0-11" value="" style="endArrow=none;html=1;rounded=0;entryX=0;entryY=0.5;entryDx=0;entryDy=0;exitX=1;exitY=0.5;exitDx=0;exitDy=0;" edge="1" parent="1" source="H4aXOUXndxHRp2GkOmo0-5" target="H4aXOUXndxHRp2GkOmo0-9">
          <mxGeometry width="50" height="50" relative="1" as="geometry">
            <mxPoint x="740" y="190" as="sourcePoint" />
            <mxPoint x="790" y="140" as="targetPoint" />
          </mxGeometry>
        </mxCell>
        <mxCell id="H4aXOUXndxHRp2GkOmo0-14" value="SPS&lt;br&gt;Logo" style="rounded=0;whiteSpace=wrap;html=1;" vertex="1" parent="1">
          <mxGeometry x="400" y="200" width="60" height="60" as="geometry" />
        </mxCell>
        <mxCell id="H4aXOUXndxHRp2GkOmo0-15" value="" style="endArrow=none;html=1;rounded=0;exitX=1;exitY=0.5;exitDx=0;exitDy=0;entryX=0;entryY=0.5;entryDx=0;entryDy=0;" edge="1" parent="1" source="H4aXOUXndxHRp2GkOmo0-2" target="H4aXOUXndxHRp2GkOmo0-4">
          <mxGeometry width="50" height="50" relative="1" as="geometry">
            <mxPoint x="350" y="140" as="sourcePoint" />
            <mxPoint x="400" y="90" as="targetPoint" />
            <Array as="points">
              <mxPoint x="430" y="120" />
              <mxPoint x="430" y="110" />
            </Array>
          </mxGeometry>
        </mxCell>
        <mxCell id="H4aXOUXndxHRp2GkOmo0-16" value="" style="endArrow=none;html=1;rounded=0;exitX=0.5;exitY=0;exitDx=0;exitDy=0;" edge="1" parent="1" source="H4aXOUXndxHRp2GkOmo0-14">
          <mxGeometry width="50" height="50" relative="1" as="geometry">
            <mxPoint x="390" y="200" as="sourcePoint" />
            <mxPoint x="430" y="120" as="targetPoint" />
          </mxGeometry>
        </mxCell>
        <mxCell id="H4aXOUXndxHRp2GkOmo0-17" value="" style="endArrow=classic;html=1;rounded=0;entryX=0.5;entryY=1;entryDx=0;entryDy=0;exitX=1;exitY=0.5;exitDx=0;exitDy=0;targetPerimeterSpacing=8;fillColor=#dae8fc;strokeColor=#6c8ebf;startArrow=none;startFill=0;endFill=1;" edge="1" parent="1" source="H4aXOUXndxHRp2GkOmo0-14" target="H4aXOUXndxHRp2GkOmo0-4">
          <mxGeometry width="50" height="50" relative="1" as="geometry">
            <mxPoint x="390" y="240" as="sourcePoint" />
            <mxPoint x="440" y="190" as="targetPoint" />
            <Array as="points">
              <mxPoint x="580" y="230" />
            </Array>
          </mxGeometry>
        </mxCell>
        <mxCell id="H4aXOUXndxHRp2GkOmo0-18" value="Schlüssel&lt;br&gt;MS-1" style="ellipse;whiteSpace=wrap;html=1;aspect=fixed;" vertex="1" parent="1">
          <mxGeometry x="220" y="300" width="60" height="60" as="geometry" />
        </mxCell>
        <mxCell id="H4aXOUXndxHRp2GkOmo0-19" value="" style="endArrow=classic;html=1;rounded=0;entryX=0.5;entryY=1;entryDx=0;entryDy=0;exitX=1;exitY=0.5;exitDx=0;exitDy=0;targetPerimeterSpacing=8;fillColor=#dae8fc;strokeColor=#6c8ebf;startArrow=none;startFill=0;endFill=1;" edge="1" parent="1" source="H4aXOUXndxHRp2GkOmo0-18" target="H4aXOUXndxHRp2GkOmo0-14">
          <mxGeometry width="50" height="50" relative="1" as="geometry">
            <mxPoint x="310" y="370" as="sourcePoint" />
            <mxPoint x="430" y="280" as="targetPoint" />
            <Array as="points">
              <mxPoint x="430" y="330" />
            </Array>
          </mxGeometry>
        </mxCell>
        <mxCell id="H4aXOUXndxHRp2GkOmo0-21" value="Zeitsteuerung überschreiben" style="text;html=1;strokeColor=none;fillColor=none;align=center;verticalAlign=middle;whiteSpace=wrap;rounded=0;" vertex="1" parent="1">
          <mxGeometry x="320" y="320" width="110" height="50" as="geometry" />
        </mxCell>
        <mxCell id="H4aXOUXndxHRp2GkOmo0-22" value="NH" style="rounded=0;whiteSpace=wrap;html=1;" vertex="1" parent="1">
          <mxGeometry x="760" y="120" width="30" height="20" as="geometry" />
        </mxCell>
        <mxCell id="H4aXOUXndxHRp2GkOmo0-23" value="Marktsäule" style="rounded=0;whiteSpace=wrap;html=1;" vertex="1" parent="1">
          <mxGeometry x="880" y="120" width="100" height="20" as="geometry" />
        </mxCell>
        <mxCell id="H4aXOUXndxHRp2GkOmo0-24" value="" style="endArrow=none;html=1;rounded=0;entryX=0;entryY=0.5;entryDx=0;entryDy=0;exitX=1;exitY=0.5;exitDx=0;exitDy=0;" edge="1" parent="1" source="H4aXOUXndxHRp2GkOmo0-22" target="H4aXOUXndxHRp2GkOmo0-23">
          <mxGeometry width="50" height="50" relative="1" as="geometry">
            <mxPoint x="740" y="230" as="sourcePoint" />
            <mxPoint x="790" y="180" as="targetPoint" />
          </mxGeometry>
        </mxCell>
        <mxCell id="H4aXOUXndxHRp2GkOmo0-25" value="NH" style="rounded=0;whiteSpace=wrap;html=1;" vertex="1" parent="1">
          <mxGeometry x="760" y="160" width="30" height="20" as="geometry" />
        </mxCell>
        <mxCell id="H4aXOUXndxHRp2GkOmo0-26" value="Marktsäule" style="rounded=0;whiteSpace=wrap;html=1;" vertex="1" parent="1">
          <mxGeometry x="880" y="160" width="100" height="20" as="geometry" />
        </mxCell>
        <mxCell id="H4aXOUXndxHRp2GkOmo0-27" value="" style="endArrow=none;html=1;rounded=0;entryX=0;entryY=0.5;entryDx=0;entryDy=0;exitX=1;exitY=0.5;exitDx=0;exitDy=0;" edge="1" parent="1" source="H4aXOUXndxHRp2GkOmo0-25" target="H4aXOUXndxHRp2GkOmo0-26">
          <mxGeometry width="50" height="50" relative="1" as="geometry">
            <mxPoint x="740" y="270" as="sourcePoint" />
            <mxPoint x="790" y="220" as="targetPoint" />
          </mxGeometry>
        </mxCell>
        <mxCell id="H4aXOUXndxHRp2GkOmo0-28" value="" style="endArrow=none;html=1;rounded=0;exitX=0;exitY=0.5;exitDx=0;exitDy=0;" edge="1" parent="1" source="H4aXOUXndxHRp2GkOmo0-25">
          <mxGeometry width="50" height="50" relative="1" as="geometry">
            <mxPoint x="720" y="170" as="sourcePoint" />
            <mxPoint x="720" y="100" as="targetPoint" />
            <Array as="points">
              <mxPoint x="720" y="170" />
            </Array>
          </mxGeometry>
        </mxCell>
        <mxCell id="H4aXOUXndxHRp2GkOmo0-29" value="" style="endArrow=none;html=1;rounded=0;entryX=0;entryY=0.5;entryDx=0;entryDy=0;" edge="1" parent="1" target="H4aXOUXndxHRp2GkOmo0-22">
          <mxGeometry width="50" height="50" relative="1" as="geometry">
            <mxPoint x="720" y="130" as="sourcePoint" />
            <mxPoint x="730" y="170" as="targetPoint" />
          </mxGeometry>
        </mxCell>
        <mxCell id="H4aXOUXndxHRp2GkOmo0-31" value="&lt;h1&gt;Prizipschaltbild Marktversorgung&lt;/h1&gt;&lt;p&gt;&lt;/p&gt;&lt;ul&gt;&lt;li&gt;jede Marktsäule ist über eine eigene NH-Sicherung trennbar&lt;/li&gt;&lt;li&gt;die SPS Logo hat ein Zeitprogramm, dass über einen Leistungsschalter alle Stromsäulen gesammelt freigibt&lt;/li&gt;&lt;li&gt;über einen Schlüsselschalter (Schlüssel: MS-1) kann das Zeitprogramm überschrieben werden und unabhängig die Säulen freigegeben werden (z.B. bei Vorverlegungen oder Wartungsarbeiten)&lt;/li&gt;&lt;/ul&gt;&lt;p&gt;&lt;/p&gt;&lt;p&gt;&lt;br&gt;&lt;/p&gt;" style="text;html=1;strokeColor=none;fillColor=none;spacing=5;spacingTop=-20;whiteSpace=wrap;overflow=hidden;rounded=0;" vertex="1" parent="1">
          <mxGeometry x="600" y="240" width="440" height="160" as="geometry" />
        </mxCell>
      </root>
    </mxGraphModel>
  </diagram>
</mxfile>
